<?xml version="1.0" standalone="no"?>
<!DOCTYPE svg PUBLIC "-//W3C//DTD SVG 20010904//EN"
 "http://www.w3.org/TR/2001/REC-SVG-20010904/DTD/svg10.dtd">
<svg version="1.0" xmlns="http://www.w3.org/2000/svg"
 width="241.000000pt" height="240.000000pt" viewBox="0 0 241.000000 240.000000"
 preserveAspectRatio="xMidYMid meet">

<g transform="translate(0.000000,240.000000) scale(0.100000,-0.100000)"
fill="#000000" stroke="none">
<path d="M1001 2374 c-315 -53 -607 -243 -785 -512 -261 -394 -270 -897 -24
-1288 168 -267 415 -448 725 -531 90 -25 114 -27 288 -27 173 0 199 3 286 26
307 83 544 253 716 516 299 455 236 1080 -148 1472 -35 36 -83 80 -106 98
l-41 32 5 -122 6 -123 37 -45 c193 -235 244 -578 128 -858 -190 -459 -746
-662 -1207 -442 -253 121 -436 343 -502 610 -21 81 -18 308 4 389 43 156 99
259 205 372 115 122 281 221 424 251 55 11 61 16 126 92 38 45 72 87 76 94 10
16 -101 15 -213 -4z"/>
<path d="M1436 2138 c-63 -79 -188 -233 -277 -343 -184 -228 -211 -274 -217
-386 -9 -162 72 -280 227 -329 191 -60 363 27 424 215 22 69 23 92 14 510 -9
437 -12 475 -37 475 -12 0 -62 -54 -134 -142z"/>
</g>
</svg>
